<svg xmlns="http://www.w3.org/2000/svg" viewBox="0 0 522.12 329.87"><defs><style>.cls-1,.cls-12,.cls-17,.cls-18,.cls-27{fill:none;stroke:#fff;stroke-miterlimit:10;}.cls-1{stroke-width:1.01px;}.cls-19,.cls-2{font-size:10.12px;fill:#fff;font-family:HiraKakuProN-W3-83pv-RKSJ-H, Hiragino Kaku Gothic ProN;}.cls-3{letter-spacing:-0.04em;}.cls-4{letter-spacing:-0.09em;}.cls-5{letter-spacing:-0.13em;}.cls-6{letter-spacing:-0.13em;}.cls-7{letter-spacing:-0.14em;}.cls-8{letter-spacing:-0.13em;}.cls-9{letter-spacing:-0.01em;}.cls-10{letter-spacing:-0.09em;}.cls-11{letter-spacing:-0.08em;}.cls-12{stroke-width:0.6px;}.cls-13{letter-spacing:-0.02em;}.cls-14{letter-spacing:-0.07em;}.cls-15{letter-spacing:-0.12em;}.cls-16{letter-spacing:-0.06em;}.cls-17{stroke-width:0.45px;}.cls-18{stroke-width:1.03px;}.cls-19{writing-mode:tb;text-orientation:upright;glyph-orientation-vertical:0deg;}.cls-20{letter-spacing:-0.06em;}.cls-21{letter-spacing:-0.04em;}.cls-22{letter-spacing:-0.1em;}.cls-23{letter-spacing:-0.07em;}.cls-24{letter-spacing:-0.01em;}.cls-25{letter-spacing:-0.02em;}.cls-26{letter-spacing:0em;}.cls-27{stroke-width:5.37px;}</style></defs><title>haichi</title><g id="レイヤー_2" data-name="レイヤー 2"><rect class="cls-1" x="256.69" y="-9.46" width="54.05" height="204" transform="translate(152.23 341.19) rotate(-90)"/><text class="cls-2" transform="translate(207.01 60.04)">秋 /<tspan class="cls-3" x="18.28" y="0"> </tspan><tspan class="cls-4" x="21.25" y="0">た</tspan><tspan class="cls-5" x="30.47" y="0">ま</tspan><tspan class="cls-6" x="39.29" y="0">こ</tspan><tspan class="cls-7" x="48.05" y="0">ク</tspan><tspan class="cls-8" x="56.7" y="0">ラ</tspan><tspan class="cls-9" x="65.48" y="0">ブ</tspan></text><text class="cls-2" transform="translate(230.98 203.79)">冬 / 生<tspan class="cls-10" x="31.76" y="0">命</tspan><tspan class="cls-11" x="40.99" y="0">と</tspan><tspan x="50.29" y="0" xml:space="preserve">思想哲学  </tspan></text><rect class="cls-12" x="252.92" y="174.8" width="127.45" height="127.45" transform="translate(-114.86 258.7) rotate(-45)"/><text class="cls-2" transform="translate(55.61 199.68)">春 /<tspan class="cls-13" x="18.28" y="0"> </tspan><tspan class="cls-14" x="21.45" y="0">ぼ</tspan><tspan class="cls-15" x="30.87" y="0">っ</tspan><tspan class="cls-5" x="39.77" y="0">ち</tspan><tspan class="cls-15" x="48.59" y="0">っ</tspan><tspan class="cls-16" x="57.49" y="0">ち</tspan></text><rect class="cls-17" x="80" y="186.36" width="96.09" height="96.09" transform="translate(-145.3 327.39) rotate(-90)"/><rect class="cls-18" x="422.47" y="58.75" width="58.07" height="196.27"/><text class="cls-19" transform="translate(457.58 100.03)">夏<tspan x="0" y="10.12"> </tspan><tspan x="0" y="13.48">/</tspan><tspan x="0" y="23.6"> </tspan><tspan class="cls-20"><tspan x="-12.14" y="-0.49">ふ</tspan><tspan class="cls-21" x="-12.14" y="8.98">れ</tspan><tspan class="cls-22" x="-12.14" y="18.65">あ</tspan><tspan class="cls-23" x="-12.14" y="27.79">い</tspan><tspan class="cls-24" x="-12.14" y="37.22">玉</tspan><tspan class="cls-25" x="-12.14" y="47.21">川</tspan><tspan class="cls-26" x="-12.14" y="57.13">上水</tspan></tspan></text></g><g id="レイヤー_3" data-name="レイヤー 3"><rect class="cls-27" x="2.68" y="2.68" width="516.75" height="324.5"/></g></svg>