<?xml version="1.0" standalone="no"?>
<!DOCTYPE svg PUBLIC "-//W3C//DTD SVG 20010904//EN"
 "http://www.w3.org/TR/2001/REC-SVG-20010904/DTD/svg10.dtd">
<svg version="1.0" xmlns="http://www.w3.org/2000/svg"
 width="335.000000pt" height="262.000000pt" viewBox="0 0 335.000000 262.000000"
 preserveAspectRatio="xMidYMid meet">

<g transform="translate(0.000000,262.000000) scale(0.100000,-0.100000)"
fill="#000000" stroke="none">
<path d="M4 2587 c3 -16 6 -37 6 -47 0 -10 8 -20 18 -22 25 -7 24 -75 -1 -89
-12 -7 -17 -23 -17 -59 l0 -50 393 0 392 0 -3 72 c-2 42 -7 66 -12 58 -13 -21
-40 -3 -40 26 0 22 4 26 24 22 21 -4 25 -1 29 31 6 47 2 51 -40 51 -22 0 -41
6 -48 17 -11 14 -49 16 -360 18 l-347 2 6 -30z m96 8 c0 -11 -11 -15 -47 -13
l-48 1 43 4 c23 2 42 8 42 14 0 5 2 9 5 9 3 0 5 -7 5 -15z m306 -5 c81 0 114
4 117 13 3 7 6 5 6 -5 1 -16 -11 -18 -123 -18 -109 0 -125 2 -131 18 -5 14 -4
15 6 5 9 -9 49 -13 125 -13z m-293 -67 c-7 -2 -21 -2 -30 0 -10 3 -4 5 12 5
17 0 24 -2 18 -5z m147 -83 l0 -90 -55 0 -55 0 0 90 0 90 55 0 55 0 0 -90z
m420 0 l0 -90 -55 0 -55 0 0 90 0 90 55 0 55 0 0 -90z m-558 35 c-8 -46 -52
-45 -52 0 0 23 4 26 28 23 21 -2 26 -8 24 -23z m256 -2 c-3 -26 -6 -28 -48
-28 -42 0 -45 2 -48 28 -3 26 -2 27 48 27 50 0 51 -1 48 -27z m60 0 c-2 -17
-10 -29 -20 -31 -14 -3 -18 3 -18 27 0 25 4 31 21 31 16 0 20 -5 17 -27z m112
-3 c0 -29 -2 -30 -45 -30 -43 0 -45 1 -45 30 0 29 2 30 45 30 43 0 45 -1 45
-30z m180 0 c0 -23 -4 -30 -20 -30 -16 0 -20 7 -20 30 0 23 4 30 20 30 16 0
20 -7 20 -30z m-605 -110 c-3 -5 -18 -9 -33 -9 l-27 1 30 8 c17 4 31 8 33 9 2
0 0 -3 -3 -9z"/>
<path d="M160 2510 c0 -5 9 -10 21 -10 16 0 20 -5 17 -27 -2 -20 -8 -28 -20
-27 -15 2 -18 -6 -18 -42 l0 -44 45 0 45 0 0 44 c0 39 -2 44 -20 39 -17 -5
-20 0 -20 27 0 27 3 32 20 27 13 -3 20 0 20 9 0 10 -13 14 -45 14 -25 0 -45
-4 -45 -10z"/>
<path d="M580 2510 c0 -5 9 -10 20 -10 16 0 20 -7 20 -31 0 -26 -3 -31 -20
-26 -18 5 -20 0 -20 -39 l0 -44 45 0 45 0 0 44 c0 36 -3 44 -17 42 -13 -1 -19
7 -21 27 -3 22 1 27 17 27 12 0 21 5 21 10 0 6 -20 10 -45 10 -25 0 -45 -4
-45 -10z"/>
<path d="M713 2607 c2 -7 21 -13 43 -15 21 -2 43 -10 47 -18 11 -19 43 -18 51
1 3 10 19 15 45 15 22 0 42 5 44 10 3 6 4 5 3 -2 -1 -8 -21 -14 -44 -16 l-42
-3 0 -130 0 -129 390 0 390 0 0 130 0 130 -45 0 c-36 0 -45 3 -44 18 0 10 3
12 6 5 2 -8 22 -13 44 -13 26 0 42 -5 45 -15 4 -8 14 -15 24 -15 10 0 20 7 24
15 3 10 19 15 45 15 22 0 42 5 44 13 3 7 6 5 6 -5 1 -13 -9 -18 -41 -20 l-43
-3 -3 -127 -3 -128 396 0 396 0 -3 128 -3 127 -40 3 c-22 2 -44 10 -48 18 -12
21 -165 20 -173 -1 -9 -23 -242 -22 -259 2 -11 15 -65 17 -634 19 -469 2 -621
-1 -618 -9z m537 -17 c85 0 120 3 123 13 3 7 6 5 6 -5 1 -16 -12 -18 -129 -18
-117 0 -130 2 -129 18 0 10 3 12 6 5 3 -10 38 -13 123 -13z m-150 -150 l0 -90
-55 0 -55 0 0 83 c0 46 3 87 7 90 3 4 28 7 55 7 l48 0 0 -90z m428 -2 l3 -88
-56 0 c-30 0 -55 3 -55 8 0 4 22 5 50 4 l50 -4 0 45 c0 40 -2 45 -20 40 -17
-5 -20 0 -20 27 0 27 3 32 20 27 13 -3 20 0 20 9 0 10 -13 14 -45 14 -25 0
-45 -4 -45 -10 0 -5 9 -10 21 -10 29 0 23 -55 -6 -56 -17 -1 -20 6 -22 43 l-1
44 51 -3 52 -3 3 -87z m422 2 l0 -90 -55 0 -55 0 0 90 0 90 55 0 55 0 0 -90z
m420 0 l0 -90 -55 0 -55 0 0 90 0 90 55 0 55 0 0 -90z m-1452 33 c-2 -17 -10
-29 -20 -31 -14 -3 -18 3 -18 27 0 25 4 31 21 31 16 0 20 -5 17 -27z m52 -3
c0 -23 -4 -30 -20 -30 -16 0 -20 7 -20 30 0 23 4 30 20 30 16 0 20 -7 20 -30z
m250 0 c0 -29 -2 -30 -45 -30 -43 0 -45 1 -45 30 0 29 2 30 45 30 43 0 45 -1
45 -30z m60 0 c0 -20 -5 -30 -15 -30 -10 0 -15 10 -15 30 0 20 5 30 15 30 10
0 15 -10 15 -30z m120 0 c0 -29 -2 -30 -45 -30 -47 0 -63 14 -51 45 4 10 20
15 51 15 43 0 45 -1 45 -30z m178 3 c-2 -17 -10 -29 -20 -31 -14 -3 -18 3 -18
27 0 25 4 31 21 31 16 0 20 -5 17 -27z m52 -4 c0 -24 -4 -30 -17 -27 -11 2
-19 14 -21 31 -3 22 1 27 17 27 17 0 21 -6 21 -31z m130 0 c0 -24 -4 -30 -17
-27 -11 2 -19 14 -21 31 -3 22 1 27 17 27 17 0 21 -6 21 -31z m58 4 c-2 -17
-10 -29 -20 -31 -14 -3 -18 3 -18 27 0 25 4 31 21 31 16 0 20 -5 17 -27z m252
-4 c0 -30 -1 -30 -47 -27 -44 3 -48 5 -51 31 -3 26 -2 27 47 27 50 0 51 -1 51
-31z m58 4 c-2 -17 -9 -28 -18 -28 -9 0 -16 11 -18 28 -3 22 1 27 18 27 17 0
21 -5 18 -27z m120 0 c-3 -26 -7 -28 -50 -31 -47 -3 -48 -3 -48 27 0 30 1 31
51 31 49 0 50 -1 47 -27z m172 -4 c0 -24 -4 -30 -17 -27 -11 2 -19 14 -21 31
-3 22 1 27 17 27 17 0 21 -6 21 -31z m58 4 c-2 -17 -10 -29 -20 -31 -14 -3
-18 3 -18 27 0 25 4 31 21 31 16 0 20 -5 17 -27z"/>
<path d="M1000 2506 c0 -9 7 -12 20 -9 17 5 20 0 20 -26 0 -37 -26 -43 -33 -8
-2 12 -5 -6 -6 -40 l-1 -63 45 0 45 0 0 39 c0 30 -4 40 -20 44 -14 3 -20 14
-20 31 0 19 5 26 20 26 11 0 20 5 20 10 0 6 -20 10 -45 10 -32 0 -45 -4 -45
-14z"/>
<path d="M1850 2510 c0 -5 9 -10 21 -10 16 0 20 -5 17 -27 -2 -20 -8 -28 -20
-27 -15 2 -18 -6 -18 -42 l0 -44 45 0 45 0 0 44 c0 36 -3 44 -17 42 -13 -1
-19 7 -21 27 -3 22 1 27 17 27 12 0 21 5 21 10 0 6 -20 10 -45 10 -25 0 -45
-4 -45 -10z"/>
<path d="M2270 2506 c0 -9 7 -12 20 -9 17 5 20 0 20 -26 0 -31 -23 -44 -33
-18 -3 6 -6 -12 -6 -40 l-1 -53 45 0 45 0 0 44 c0 36 -3 44 -17 42 -13 -1 -19
7 -21 27 -3 22 1 27 17 27 12 0 21 5 21 10 0 6 -20 10 -45 10 -32 0 -45 -4
-45 -14z"/>
<path d="M1976 2605 c5 -12 28 -15 119 -15 91 0 114 3 119 15 5 13 -13 15
-119 15 -106 0 -124 -2 -119 -15z"/>
<path d="M2407 2604 c3 -9 20 -14 44 -14 26 0 42 -5 45 -15 4 -8 14 -15 24
-15 10 0 20 7 24 15 3 10 19 15 45 15 22 0 42 5 44 13 3 7 6 5 6 -5 1 -15 -8
-18 -44 -18 l-45 0 0 -130 0 -130 398 -1 c218 -1 387 -4 375 -6 -13 -2 -23
-11 -23 -19 0 -8 -7 -14 -15 -14 -8 0 -15 -4 -15 -10 0 -5 -4 -10 -9 -10 -5 0
-7 9 -4 19 3 12 11 17 19 14 8 -3 14 0 14 6 0 14 -11 14 -45 1 -23 -9 -25 -13
-15 -25 8 -9 8 -15 2 -15 -6 0 -12 6 -15 13 -3 9 -7 9 -20 -1 -13 -11 -15 -10
-10 7 3 12 11 17 19 14 8 -3 14 0 14 6 0 14 -11 14 -45 1 -23 -9 -25 -13 -15
-25 8 -10 9 -15 2 -15 -6 0 -14 5 -17 10 -10 15 -390 13 -415 -2 -16 -10 -24
-10 -40 -1 -12 8 -21 9 -25 3 -3 -6 -12 -10 -18 -10 -7 0 -6 4 3 10 21 13 2
29 -43 37 -26 4 -37 2 -37 -7 0 -8 9 -11 24 -8 18 4 26 0 30 -15 4 -15 2 -17
-7 -8 -6 6 -21 11 -34 11 -13 0 -23 5 -23 11 0 16 -26 39 -44 39 -9 0 -16 -4
-16 -10 0 -5 -9 -10 -20 -10 -11 0 -20 -6 -20 -14 0 -7 -8 -16 -17 -20 -10 -3
-25 -9 -33 -12 -13 -5 -13 -4 0 5 18 13 6 27 -32 36 -19 5 -28 3 -28 -5 0 -7
6 -10 14 -7 8 3 16 -2 19 -14 5 -17 3 -18 -10 -7 -13 10 -17 10 -20 1 -3 -7
-9 -13 -15 -13 -6 0 -6 6 2 15 22 27 -33 35 -243 35 -225 0 -251 -4 -244 -31
6 -21 -9 -27 -16 -6 -3 9 -7 9 -20 -1 -13 -11 -15 -10 -10 7 3 12 11 17 19 14
8 -3 14 0 14 6 0 14 -11 14 -45 1 -23 -9 -25 -13 -15 -25 8 -10 9 -15 2 -15
-6 0 -14 5 -17 10 -3 6 -15 10 -26 10 -10 0 -19 7 -19 15 0 8 -7 15 -15 15 -8
0 -15 5 -15 10 0 6 -9 10 -20 10 -11 0 -20 -4 -20 -10 0 -5 -9 -10 -20 -10
-11 0 -20 -6 -20 -12 0 -7 -11 -18 -24 -24 -20 -9 -23 -8 -19 7 3 10 11 15 19
12 8 -3 14 0 14 7 0 8 -9 10 -27 5 -38 -9 -52 -23 -33 -35 9 -6 10 -10 3 -10
-6 0 -15 5 -18 10 -5 8 -11 8 -20 0 -11 -9 -12 -7 -8 9 3 12 11 17 19 14 8 -3
14 0 14 7 0 8 -9 10 -27 5 -38 -9 -52 -23 -33 -35 9 -6 10 -10 3 -10 -6 0 -15
5 -18 10 -4 6 -83 10 -205 10 -122 0 -201 -4 -205 -10 -3 -5 -12 -10 -18 -10
-7 0 -6 4 3 10 19 12 5 26 -32 35 -19 5 -28 3 -28 -5 0 -7 6 -10 14 -7 8 3 16
-2 19 -14 4 -16 3 -18 -8 -9 -9 8 -15 8 -20 0 -3 -5 -11 -10 -17 -10 -7 0 -6
5 2 15 10 12 8 16 -15 25 -35 13 -65 13 -65 -1 0 -7 10 -9 24 -7 18 4 26 0 30
-15 4 -15 2 -17 -7 -8 -6 6 -21 11 -34 11 -13 0 -23 5 -23 11 0 16 -26 39 -44
39 -9 0 -16 -4 -16 -10 0 -5 -9 -10 -20 -10 -11 0 -20 -7 -20 -15 0 -8 -7 -15
-15 -15 -8 0 -15 -4 -15 -10 0 -5 -4 -10 -9 -10 -5 0 -7 9 -4 19 3 12 11 17
19 14 8 -3 14 0 14 7 0 8 -8 10 -22 6 -13 -3 -27 -6 -32 -6 -4 0 -6 -9 -3 -20
6 -21 -9 -28 -16 -7 -3 9 -7 9 -20 -1 -13 -11 -15 -10 -10 7 3 12 11 17 19 14
8 -3 14 0 14 6 0 14 -11 14 -45 1 -23 -9 -25 -13 -15 -25 9 -10 9 -15 1 -15
-6 0 -11 5 -11 10 0 15 -403 13 -417 -1 -9 -9 -11 -7 -7 7 5 18 16 19 215 16
146 -2 209 1 209 8 0 17 -435 9 -452 -8 -10 -10 -10 -15 2 -22 9 -6 10 -10 3
-10 -6 0 -15 5 -18 10 -5 8 -11 7 -21 -1 -8 -6 -17 -9 -21 -5 -3 3 -1 6 5 6 7
0 12 7 12 16 0 8 4 13 9 9 5 -3 12 -2 14 3 3 4 -21 8 -54 9 -34 1 -59 -3 -59
-9 0 -6 11 -8 24 -6 18 4 26 0 30 -15 4 -15 2 -17 -7 -8 -6 6 -21 11 -34 11
-14 0 -23 6 -23 15 0 8 -7 15 -15 15 -13 0 -15 -135 -15 -1155 l0 -1155 206 0
206 0 -7 28 c-3 15 -20 45 -37 66 -22 27 -33 53 -36 85 -3 40 1 53 32 99 58
84 57 122 -10 212 -36 48 -30 111 15 167 55 69 52 109 -14 202 -38 52 -34 106
11 165 54 71 55 107 5 181 -55 81 -55 119 0 200 50 74 49 110 -5 181 -45 59
-49 113 -11 165 66 92 69 129 16 201 -17 23 -31 46 -31 51 0 11 41 -43 66 -87
24 -42 13 -95 -30 -152 -45 -58 -48 -105 -11 -155 65 -88 68 -144 14 -212 -20
-25 -33 -54 -36 -81 -4 -35 0 -49 32 -94 58 -85 56 -131 -10 -221 -37 -50 -34
-97 11 -155 59 -78 57 -120 -11 -215 -37 -51 -33 -94 15 -165 52 -76 52 -106
0 -182 -28 -41 -40 -70 -40 -94 0 -32 8 -48 62 -129 10 -14 18 -34 18 -43 0
-16 12 -18 121 -18 l121 0 -7 28 c-3 15 -20 45 -37 66 -44 55 -49 118 -14 166
65 88 69 136 14 204 -44 55 -49 118 -14 166 65 88 69 136 14 204 -44 55 -49
118 -14 166 65 88 69 136 14 204 -44 55 -49 118 -14 166 65 88 69 136 14 204
-44 55 -49 118 -14 166 65 88 69 136 16 202 -17 20 -30 42 -30 49 0 16 45 -47
66 -91 22 -46 13 -90 -30 -146 -44 -58 -48 -105 -11 -155 68 -95 70 -137 11
-215 -44 -58 -48 -105 -11 -155 68 -95 70 -137 11 -215 -44 -58 -48 -105 -11
-155 68 -95 70 -137 11 -215 -44 -58 -48 -105 -11 -155 68 -95 70 -137 11
-215 -26 -34 -36 -57 -36 -83 0 -33 7 -48 62 -130 10 -14 18 -34 18 -43 0 -17
70 -18 1340 -18 l1340 0 0 1308 0 1307 -474 1 c-402 2 -474 0 -469 -12z m533
-14 c85 0 120 3 123 13 3 7 6 5 6 -5 1 -16 -12 -18 -129 -18 -117 0 -130 2
-129 18 0 10 3 12 6 5 3 -10 38 -13 123 -13z m354 -2 c25 -2 41 -9 43 -18 3
-10 2 -11 -4 -3 -4 6 -26 13 -47 15 -25 2 -41 9 -43 18 -3 10 -2 11 4 3 4 -6
26 -13 47 -15z m-496 -150 l3 -88 -58 2 -58 2 53 3 52 4 0 79 0 79 -52 4 -53
4 55 -1 55 -1 3 -87z m422 2 l0 -90 -55 0 -55 0 0 90 0 90 55 0 55 0 0 -90z
m-612 33 c-2 -17 -10 -29 -20 -31 -14 -3 -18 3 -18 27 0 25 4 31 21 31 16 0
20 -5 17 -27z m52 -4 c0 -24 -4 -30 -17 -27 -11 2 -19 14 -21 31 -3 22 1 27
17 27 17 0 21 -6 21 -31z m75 21 c10 -16 -5 -50 -21 -50 -17 0 -28 24 -20 45
6 17 32 20 41 5z m45 -20 c0 -20 -5 -30 -15 -30 -10 0 -15 10 -15 30 0 20 5
30 15 30 10 0 15 -10 15 -30z m138 3 c-3 -26 -6 -28 -48 -28 -42 0 -45 2 -48
28 -3 26 -2 27 48 27 50 0 51 -1 48 -27z m52 -3 c0 -20 -5 -30 -15 -30 -10 0
-15 10 -15 30 0 20 5 30 15 30 10 0 15 -10 15 -30z m120 0 c0 -29 -2 -30 -45
-30 -43 0 -45 1 -45 30 0 29 2 30 45 30 43 0 45 -1 45 -30z m178 3 c-2 -17
-10 -29 -20 -31 -14 -3 -18 3 -18 27 0 25 4 31 21 31 16 0 20 -5 17 -27z m52
-4 c0 -24 -4 -30 -17 -27 -11 2 -19 14 -21 31 -3 22 1 27 17 27 17 0 21 -6 21
-31z m-1006 -191 c2 -10 0 -18 -5 -18 -5 0 -9 5 -9 10 0 6 -75 10 -205 10
-130 0 -205 -4 -205 -10 0 -5 -4 -10 -9 -10 -5 0 -7 8 -5 18 5 15 24 17 219
17 195 0 214 -2 219 -17z m445 -1724 c-16 -60 -76 -132 -139 -168 -49 -28 -64
-31 -135 -31 -67 0 -88 5 -131 27 -58 31 -108 83 -135 142 -17 38 -18 70 -17
406 l2 365 6 -370 c6 -415 4 -407 82 -484 44 -45 128 -81 187 -81 104 0 213
70 257 165 l24 50 2 750 3 750 3 -740 c2 -523 -1 -752 -9 -781z m196 1441 c0
-46 -4 -70 -12 -72 -10 -4 -13 15 -13 72 0 57 3 76 13 73 8 -3 12 -27 12 -73z
m77 -691 c1 -686 0 -765 -15 -823 -68 -255 -319 -431 -580 -407 -191 18 -352
126 -442 298 -60 113 -65 158 -63 558 l2 355 6 -380 c7 -428 10 -450 88 -571
154 -237 449 -318 704 -192 82 41 193 152 232 233 57 118 56 96 56 929 0 423
2 767 5 764 3 -2 6 -346 7 -764z m-2136 598 c10 -37 -4 -80 -41 -129 -44 -57
-47 -104 -10 -154 65 -88 68 -144 14 -212 -20 -25 -33 -54 -36 -81 -4 -35 0
-49 32 -94 58 -85 56 -131 -10 -221 -37 -50 -34 -97 10 -154 l35 -45 34 34
c28 28 42 34 75 34 77 0 131 -51 131 -122 0 -37 -38 -88 -77 -104 -50 -21 -95
-11 -131 30 -29 34 -30 34 -41 13 -6 -12 -23 -37 -36 -56 -37 -51 -33 -94 15
-165 52 -76 52 -106 0 -182 -45 -66 -51 -112 -22 -155 53 -79 62 -96 61 -114
0 -14 -3 -12 -11 10 -6 17 -24 48 -41 69 -21 27 -32 53 -35 85 -3 40 1 53 32
99 58 84 57 122 -10 212 -35 48 -30 111 14 166 54 68 51 115 -13 203 -38 52
-34 106 11 165 54 71 55 107 5 181 -55 81 -55 119 0 200 50 74 49 110 -5 181
-45 59 -49 113 -11 165 66 92 69 129 16 201 -17 23 -31 46 -31 52 0 15 70 -87
76 -112z m782 69 c47 -68 46 -115 -2 -185 -49 -71 -49 -112 0 -183 53 -76 49
-132 -12 -206 -38 -45 -33 -110 11 -166 30 -37 35 -52 35 -95 0 -43 -6 -58
-35 -95 -29 -36 -35 -52 -35 -91 0 -39 6 -55 35 -91 29 -37 35 -52 35 -95 0
-43 -5 -58 -35 -95 -44 -56 -49 -121 -11 -166 61 -74 65 -130 12 -206 -49 -70
-49 -114 -1 -181 20 -28 35 -61 34 -75 -1 -24 -2 -23 -9 6 -4 17 -21 48 -39
69 -26 32 -31 47 -31 90 0 43 5 58 35 95 44 56 49 121 11 166 -60 72 -63 134
-11 207 26 37 35 60 35 90 0 31 -9 53 -35 90 -28 40 -35 59 -35 96 0 37 7 56
35 96 26 37 35 59 35 90 0 30 -9 53 -35 90 -52 73 -49 135 11 207 38 45 33
110 -11 166 -30 37 -35 52 -35 95 0 43 6 58 35 95 44 55 49 122 12 168 -44 55
-49 63 -41 63 5 0 24 -22 42 -49z m-479 -10 c46 -68 45 -115 -3 -186 -47 -68
-49 -115 -4 -175 55 -77 53 -140 -6 -210 -40 -48 -37 -111 9 -169 51 -64 51
-124 -1 -190 -48 -63 -48 -121 1 -182 29 -37 35 -52 35 -95 0 -43 -5 -58 -35
-95 -44 -56 -49 -121 -11 -166 61 -74 65 -130 12 -206 -49 -70 -49 -114 -1
-181 20 -28 35 -61 34 -75 -1 -24 -2 -23 -9 6 -4 17 -21 48 -39 69 -26 32 -31
47 -31 90 0 43 5 58 35 95 44 56 49 121 11 166 -60 72 -63 134 -11 207 26 37
35 60 35 90 0 31 -9 53 -35 90 -28 40 -35 59 -35 96 0 37 7 56 35 96 26 37 35
59 35 90 0 30 -9 53 -35 90 -52 73 -49 135 11 207 38 45 33 110 -11 166 -30
37 -35 52 -35 95 0 43 6 58 35 95 44 55 49 122 12 168 -44 55 -49 63 -41 63 5
0 24 -22 43 -49z m249 -9 c45 -68 44 -120 -3 -186 -48 -68 -48 -112 1 -183 49
-71 49 -115 0 -186 -49 -70 -49 -113 0 -184 49 -71 49 -115 0 -186 -49 -71
-49 -115 -1 -183 28 -38 35 -59 35 -94 0 -35 -7 -56 -35 -94 -26 -38 -35 -60
-35 -91 0 -31 9 -53 35 -91 28 -38 35 -59 35 -94 0 -35 -7 -56 -35 -94 -26
-38 -35 -60 -35 -91 0 -31 9 -53 35 -91 19 -27 35 -60 34 -74 -1 -22 -2 -21
-9 7 -4 17 -21 48 -39 69 -26 32 -31 47 -31 89 0 42 6 57 35 94 29 36 35 52
35 91 0 39 -6 55 -35 91 -29 37 -35 52 -35 94 0 42 6 57 35 94 29 36 35 52 35
91 0 39 -6 55 -35 91 -29 37 -35 52 -35 94 0 42 6 57 35 94 29 36 35 52 35 91
0 39 -6 55 -35 91 -29 37 -35 52 -35 94 0 42 6 57 35 94 29 36 35 52 35 91 0
39 -6 55 -35 91 -29 37 -35 52 -35 94 0 42 6 57 35 94 49 62 49 114 -1 182
-20 27 -32 49 -27 49 4 0 23 -22 41 -48z m-377 -499 c31 -18 59 -67 59 -103 0
-48 -48 -107 -96 -116 -102 -19 -177 83 -129 176 29 56 109 77 166 43z m1059
-283 c0 -64 -3 -80 -15 -80 -12 0 -15 16 -15 80 0 64 3 80 15 80 12 0 15 -16
15 -80z m720 -777 c0 -9 -58 -89 -78 -106 -11 -11 -25 -16 -31 -13 -13 9 81
134 97 128 6 -2 12 -6 12 -9z"/>
<path d="M3120 2510 c0 -5 9 -10 21 -10 16 0 20 -5 17 -27 -2 -20 -8 -28 -20
-27 -15 2 -18 -6 -18 -42 l0 -44 45 0 45 0 0 44 c0 39 -2 44 -20 39 -17 -5
-20 0 -20 26 0 24 4 31 20 31 11 0 20 5 20 10 0 6 -20 10 -45 10 -25 0 -45 -4
-45 -10z"/>
<path d="M810 2445 c0 -87 3 -105 15 -105 12 0 15 18 15 105 0 87 -3 105 -15
105 -12 0 -15 -18 -15 -105z"/>
<path d="M1657 2543 c-4 -3 -7 -51 -7 -105 0 -91 1 -98 20 -98 19 0 20 7 20
105 0 81 -3 105 -13 105 -8 0 -17 -3 -20 -7z"/>
<path d="M2500 2446 c0 -100 1 -106 20 -106 20 0 21 5 18 102 -3 89 -5 103
-20 106 -16 3 -18 -7 -18 -102z"/>
<path d="M1040 2300 c0 -6 75 -10 204 -10 126 0 207 4 211 10 4 7 -67 10 -204
10 -134 0 -211 -4 -211 -10z"/>
<path d="M1730 2300 c0 -5 9 -10 20 -10 11 0 20 5 20 10 0 6 -9 10 -20 10 -11
0 -20 -4 -20 -10z"/>
<path d="M2420 2300 c0 -5 7 -10 15 -10 8 0 15 5 15 10 0 6 -7 10 -15 10 -8 0
-15 -4 -15 -10z"/>
<path d="M2665 2300 c4 -6 11 -8 16 -5 14 9 11 15 -7 15 -8 0 -12 -5 -9 -10z"/>
<path d="M2713 2300 c-28 -12 -30 -30 -3 -30 11 0 20 6 20 13 0 9 47 11 210 9
140 -2 210 1 210 8 0 13 -405 13 -437 0z"/>
</g>
</svg>
